<svg width="66" height="14" viewBox="0 0 66 14" fill="none" xmlns="http://www.w3.org/2000/svg">
<path d="M10.5007 1.16669H8.75065C7.9771 1.16669 7.23524 1.47398 6.68826 2.02096C6.14128 2.56794 5.83398 3.30981 5.83398 4.08335V5.83335H4.08398V8.16669H5.83398V12.8334H8.16732V8.16669H9.91732L10.5007 5.83335H8.16732V4.08335C8.16732 3.92864 8.22878 3.78027 8.33817 3.67088C8.44757 3.56148 8.59594 3.50002 8.75065 3.50002H10.5007V1.16669Z" fill="#101010"/>
<path d="M35.332 4.66669C36.2603 4.66669 37.1505 5.03544 37.8069 5.69181C38.4633 6.34819 38.832 7.23843 38.832 8.16669V12.25H36.4987V8.16669C36.4987 7.85727 36.3758 7.56052 36.157 7.34173C35.9382 7.12294 35.6415 7.00002 35.332 7.00002C35.0226 7.00002 34.7259 7.12294 34.5071 7.34173C34.2883 7.56052 34.1654 7.85727 34.1654 8.16669V12.25H31.832V8.16669C31.832 7.23843 32.2008 6.34819 32.8572 5.69181C33.5135 5.03544 34.4038 4.66669 35.332 4.66669Z" fill="#101010"/>
<path d="M27.166 5.25H29.4993V12.25H27.166V5.25Z" fill="#101010"/>
<path d="M28.3327 3.50002C28.977 3.50002 29.4993 2.97769 29.4993 2.33335C29.4993 1.68902 28.977 1.16669 28.3327 1.16669C27.6884 1.16669 27.166 1.68902 27.166 2.33335C27.166 2.97769 27.6884 3.50002 28.3327 3.50002Z" fill="#101010"/>
<path d="M65.4173 1.75001C64.8587 2.14403 64.2402 2.4454 63.5856 2.64251C63.2343 2.23855 62.7674 1.95224 62.2481 1.8223C61.7287 1.69235 61.182 1.72504 60.6819 1.91594C60.1817 2.10684 59.7522 2.44674 59.4516 2.88967C59.1509 3.33261 58.9935 3.8572 59.0007 4.39251V4.97584C57.9755 5.00242 56.9597 4.77506 56.0437 4.31402C55.1278 3.85297 54.34 3.17254 53.7507 2.33334C53.7507 2.33334 51.4173 7.58334 56.6673 9.91667C55.466 10.7322 54.0348 11.141 52.584 11.0833C57.834 14 64.2506 11.0833 64.2506 4.37501C64.2501 4.21252 64.2345 4.05044 64.204 3.89084C64.7993 3.30371 65.2195 2.56242 65.4173 1.75001V1.75001Z" fill="#101010"/>
</svg>
